<?xml version="1.0" encoding="UTF-8" standalone="no"?>
<!-- Created with Inkscape (http://www.inkscape.org/) -->

<svg
   xmlns:dc="http://purl.org/dc/elements/1.1/"
   xmlns:cc="http://creativecommons.org/ns#"
   xmlns:rdf="http://www.w3.org/1999/02/22-rdf-syntax-ns#"
   xmlns:svg="http://www.w3.org/2000/svg"
   xmlns="http://www.w3.org/2000/svg"
   xmlns:sodipodi="http://sodipodi.sourceforge.net/DTD/sodipodi-0.dtd"
   xmlns:inkscape="http://www.inkscape.org/namespaces/inkscape"
   width="1052.36"
   height="744.09448"
   id="svg2"
   version="1.1"
   inkscape:version="0.48.2 r9819"
   sodipodi:docname="valentines.svg"
   inkscape:export-filename="/Users/jamiely/code/leona_drawing_01/drawing.pdf.png"
   inkscape:export-xdpi="107.15"
   inkscape:export-ydpi="107.15">
  <defs
     id="defs4">
    <filter
       color-interpolation-filters="sRGB"
       id="filter5812"
       height="1.2252001"
       width="1.2009"
       y="-0.11262"
       x="-0.10046"
       inkscape:collect="always">
      <feGaussianBlur
         id="feGaussianBlur5814"
         stdDeviation="17.227831"
         inkscape:collect="always" />
    </filter>
    <clipPath
       id="clipPath5030"
       clipPathUnits="userSpaceOnUse">
      <path
         inkscape:connector-curvature="0"
         id="path5032"
         sodipodi:nodetypes="cscsc"
         style="fill:#ff0000;fill-rule:evenodd"
         d="m 290.95,680.93 c 0,0 236.67,-140 202.39,-274.28 C 459.05,272.36 313.34,303.79 290.95,375.22 268.57,303.79 122.86,272.36 88.57,406.65 54.286,540.93 290.95,680.93 290.95,680.93 z" />
    </clipPath>
    <filter
       color-interpolation-filters="sRGB"
       id="filter5022"
       height="1.2311"
       width="1.3724999"
       y="-0.11555"
       x="-0.18626"
       inkscape:collect="always">
      <feGaussianBlur
         id="feGaussianBlur5024"
         stdDeviation="17.531555"
         inkscape:collect="always" />
    </filter>
    <filter
       color-interpolation-filters="sRGB"
       id="filter5453"
       height="1.5165"
       width="1.6371"
       y="-0.25824001"
       x="-0.31856"
       inkscape:collect="always">
      <feGaussianBlur
         id="feGaussianBlur5455"
         stdDeviation="17.570414"
         inkscape:collect="always" />
    </filter>
    <filter
       color-interpolation-filters="sRGB"
       id="filter5655"
       inkscape:collect="always">
      <feGaussianBlur
         id="feGaussianBlur5657"
         stdDeviation="5.452887"
         inkscape:collect="always" />
    </filter>
    <clipPath
       id="clipPath5030-0"
       clipPathUnits="userSpaceOnUse">
      <path
         inkscape:connector-curvature="0"
         id="path5032-2"
         sodipodi:nodetypes="cscsc"
         style="fill:#ff0000;fill-rule:evenodd"
         d="m 290.95,680.93 c 0,0 236.67,-140 202.39,-274.28 C 459.05,272.36 313.34,303.79 290.95,375.22 268.57,303.79 122.86,272.36 88.57,406.65 54.286,540.93 290.95,680.93 290.95,680.93 z" />
    </clipPath>
    <filter
       color-interpolation-filters="sRGB"
       id="filter5022-4"
       height="1.2311"
       width="1.3724999"
       y="-0.11555"
       x="-0.18626"
       inkscape:collect="always">
      <feGaussianBlur
         id="feGaussianBlur5024-8"
         stdDeviation="17.531555"
         inkscape:collect="always" />
    </filter>
  </defs>
  <sodipodi:namedview
     id="base"
     pagecolor="#ffffff"
     bordercolor="#666666"
     borderopacity="1.0"
     inkscape:pageopacity="1"
     inkscape:pageshadow="2"
     inkscape:zoom="0.97298294"
     inkscape:cx="74.320119"
     inkscape:cy="385.47326"
     inkscape:document-units="px"
     inkscape:current-layer="layer1"
     showgrid="false"
     inkscape:window-width="1440"
     inkscape:window-height="852"
     inkscape:window-x="0"
     inkscape:window-y="0"
     inkscape:window-maximized="1"
     showguides="true"
     units="px"
     inkscape:guide-bbox="true">
    <sodipodi:guide
       orientation="1,0"
       position="526,524.518"
       id="guide4070" />
  </sodipodi:namedview>
  <metadata
     id="metadata7">
    <rdf:RDF>
      <cc:Work
         rdf:about="">
        <dc:format>image/svg+xml</dc:format>
        <dc:type
           rdf:resource="http://purl.org/dc/dcmitype/StillImage" />
        <dc:title></dc:title>
      </cc:Work>
    </rdf:RDF>
  </metadata>
  <g
     inkscape:groupmode="layer"
     id="layer18"
     inkscape:label="Background"
     sodipodi:insensitive="true"
     style="display:none"
     transform="translate(0,-308.26522)">
    <path
       style="fill:none;stroke:#000000;stroke-width:1px;stroke-linecap:butt;stroke-linejoin:miter;stroke-opacity:1"
       d="m 55.348919,650.65456 c -11.240655,-3.25139 -18.956642,3.56401 -27.959763,4.85017 -3.06209,0.43744 -6.689004,-0.75283 -9.700326,0 -8.0129308,2.00323 -8.8705577,3.99425 -17.40352629,3.99425"
       id="path6313"
       inkscape:connector-curvature="0" />
    <path
       style="fill:none;stroke:#000000;stroke-width:1px;stroke-linecap:butt;stroke-linejoin:miter;stroke-opacity:1"
       d="m 404.56066,643.23667 c 15.066,0.20293 39.30334,-4.47817 51.92527,0.57061"
       id="path6315"
       inkscape:connector-curvature="0" />
    <path
       style="fill:none;stroke:#000000;stroke-width:1px;stroke-linecap:butt;stroke-linejoin:miter;stroke-opacity:1"
       d="m 469.03929,647.23092 c 40.30932,-1.6264 152.42681,-3.10103 186.01802,13.69458 14.37378,7.18689 35.17184,-14.97301 49.07224,-5.70608 11.72285,7.81524 27.67378,9.12972 42.22494,9.12972"
       id="path6319"
       inkscape:connector-curvature="0" />
    <path
       style="fill:none;stroke:#000000;stroke-width:1px;stroke-linecap:butt;stroke-linejoin:miter;stroke-opacity:1"
       d="m 465.61565,364.20964 c 49.35682,11.05153 68.87882,-17.89179 106.13298,-36.51887 4.30654,-2.15327 169.6792,-16.27761 176.88829,-14.83579"
       id="path6321"
       inkscape:connector-curvature="0" />
    <path
       style="fill:none;stroke:#000000;stroke-width:1px;stroke-linecap:butt;stroke-linejoin:miter;stroke-opacity:1"
       d="m -1.1412148,398.44609 c 12.7173608,-0.11441 27.2195838,2.452 36.5188748,-6.84729 3.327184,-3.32718 3.423644,-18.39993 3.423644,-13.69458 0,14.7391 28.163146,23.82992 39.942519,15.97701 4.397181,-2.93145 2.703749,-13.69458 7.988504,-13.69458 4.838158,0 41.890863,39.3557 58.601913,5.9336 m 266.8407,-0.45504 c 6.21994,0 10.77286,-3.19613 13.49819,-3.19613 22.24041,0 42.8375,8.42785 66.19046,3.42365 8.89121,-1.90526 12.46579,-9.86134 20.54187,-12.55337 25.10062,-8.36687 67.08028,10.52232 85.59111,-7.9885 1.78911,-1.78912 8.58313,2.18305 9.12972,2.28243 6.08486,1.10634 28.76676,-5.01727 29.67158,-4.56486 12.78143,6.39071 32.10863,18.0588 46.78981,12.55336 13.30459,-4.98922 17.44826,-22.4187 29.67158,-28.53037 2.6574,-1.3287 3.60522,4.74644 5.70608,6.84729 6.28594,6.28594 16.07968,7.9885 25.10672,7.9885"
       id="path6323"
       inkscape:connector-curvature="0"
       sodipodi:nodetypes="cssssccsssssssssc" />
    <path
       style="fill:none;stroke:#000000;stroke-width:1px;stroke-linecap:butt;stroke-linejoin:miter;stroke-opacity:1"
       d="m 53.637097,441.81225 c 22.625684,25.66158 69.496063,3.42365 91.297183,3.42365"
       id="path6325"
       inkscape:connector-curvature="0" />
    <path
       style="fill:none;stroke:#000000;stroke-width:1px;stroke-linecap:butt;stroke-linejoin:miter;stroke-opacity:1"
       d="m 10.270933,490.88449 c 12.894241,11.44282 29.505468,17.11822 46.789808,17.11822 7.941889,0 14.982746,-4.71181 20.541867,-10.27093 1.958254,-1.95826 -0.48696,-7.98851 2.28243,-7.98851 2.743139,0 1.87499,6.30932 4.564859,6.84729 8.054414,1.61089 38.931103,-3.55344 41.083733,-5.70607"
       id="path6327"
       inkscape:connector-curvature="0" />
    <path
       style="fill:none;stroke:#000000;stroke-width:1px;stroke-linecap:butt;stroke-linejoin:miter;stroke-opacity:1"
       d="m 456.48593,428.11767 c 13.28736,7.75771 30.57386,18.33909 47.93102,12.55337 2.83614,-0.94538 3.2762,-7.81924 5.70608,-6.84729 35.5276,14.21104 45.4113,10.35003 69.6141,2.28243"
       id="path6329"
       inkscape:connector-curvature="0" />
    <path
       style="fill:none;stroke:#000000;stroke-width:1px;stroke-linecap:butt;stroke-linejoin:miter;stroke-opacity:1"
       d="m 601.42021,434.96496 c 15.56385,9.14356 36.82392,15.11452 54.77831,9.12972 7.55077,-2.51692 5.30656,-8.92996 10.27094,-11.41215 3.90038,-1.95019 19.74003,8.38942 27.38915,4.56486 19.92065,-9.96032 37.63293,-8.21131 59.34317,-12.55336"
       id="path6331"
       inkscape:connector-curvature="0" />
    <path
       style="fill:none;stroke:#000000;stroke-width:1px;stroke-linecap:butt;stroke-linejoin:miter;stroke-opacity:1"
       d="m -7.9885038,557.07495 c 10.4754838,14.3441 31.4653668,15.52409 47.9310228,13.69458 2.076846,-0.23076 8.561344,-6.08499 9.129718,-5.70608 9.253447,6.16897 20.484095,7.61773 31.954015,5.70608 7.593788,-1.26563 25.309878,-16.38331 27.389158,-20.54187"
       id="path6333"
       inkscape:connector-curvature="0" />
    <path
       style="fill:none;stroke:#000000;stroke-width:1px;stroke-linecap:butt;stroke-linejoin:miter;stroke-opacity:1"
       d="m 666.46946,589.02896 c 16.81186,13.50663 70.50747,10.36895 74.17896,-7.9885"
       id="path6335"
       inkscape:connector-curvature="0" />
    <path
       style="fill:none;stroke:#000000;stroke-width:1px;stroke-linecap:butt;stroke-linejoin:miter;stroke-opacity:1"
       d="m 594.57292,212.42807 c -5.92506,41.46461 11.41215,85.50178 11.41215,124.39242"
       id="path6337"
       inkscape:connector-curvature="0" />
    <path
       style="fill:none;stroke:#000000;stroke-width:1px;stroke-linecap:butt;stroke-linejoin:miter;stroke-opacity:1"
       d="m 649.35123,316.27862 c 4.68878,-19.16997 -22.30235,-85.59111 9.12972,-85.59111 9.65713,0 20.60614,5.23187 26.24794,13.69458 12.91408,19.37111 6.50951,45.43867 11.41215,65.04924"
       id="path6339"
       inkscape:connector-curvature="0" />
    <path
       style="fill:none;stroke:#000000;stroke-width:1px;stroke-linecap:butt;stroke-linejoin:miter;stroke-opacity:1"
       d="m 594.57292,213.56929 c 40.69542,2.29068 81.60272,-2.28243 122.10999,-2.28243"
       id="path6341"
       inkscape:connector-curvature="0" />
    <path
       style="fill:none;stroke:#000000;stroke-width:1px;stroke-linecap:butt;stroke-linejoin:miter;stroke-opacity:1"
       d="m 528.38246,205.58078 c 1.7888,29.07789 -8.16227,136.94578 10.27094,136.94578"
       id="path6343"
       inkscape:connector-curvature="0" />
    <path
       style="fill:none;stroke:#000000;stroke-width:1px;stroke-linecap:butt;stroke-linejoin:miter;stroke-opacity:1"
       d="m 610.54993,211.28686 c -6.25243,-45.12941 34.74935,-43.36617 70.75532,-43.36617 9.03041,0 24.76641,-3.02319 33.09523,1.14122 5.33134,2.66567 3.28754,32.41473 4.56486,38.8013"
       id="path6345"
       inkscape:connector-curvature="0" />
    <path
       style="fill:none;stroke:#000000;stroke-width:1px;stroke-linecap:butt;stroke-linejoin:miter;stroke-opacity:1"
       d="m 628.80937,169.06191 c 1.99612,-9.95452 -4.74465,-22.04267 -9.12972,-30.8128 -0.45939,-0.91877 -16.59766,-24.13903 -10.27093,-26.24794 15.12186,-5.04062 59.79721,-4.11082 70.75531,6.84729 8.83205,8.83204 9.62055,39.62341 12.55337,51.35466"
       id="path6347"
       inkscape:connector-curvature="0" />
    <path
       style="fill:none;stroke:#000000;stroke-width:1px;stroke-linecap:butt;stroke-linejoin:miter;stroke-opacity:1"
       d="m 604.84386,212.42807 c -5.55402,-17.37504 1.24982,-43.14894 -6.84729,-59.34317 -1.28542,-2.57083 -32.78709,0 -35.37766,0 -5.66889,0 -25.92634,-2.60403 -29.67159,1.14122 -5.11686,5.11685 -2.53981,38.68963 -4.56486,46.7898"
       id="path6349"
       inkscape:connector-curvature="0" />
    <path
       style="fill:none;stroke:#000000;stroke-width:1px;stroke-linecap:butt;stroke-linejoin:miter;stroke-opacity:1"
       d="m 499.85209,142.81397 c 23.82541,10.93776 50.24293,4.06093 75.32018,6.84729 22.37918,2.48657 47.81625,8.90017 31.95402,-22.8243 -3.11595,-6.23188 -15.25845,-30.453518 -20.54187,-33.095229 -18.88554,-9.44277 -67.68302,39.547589 -86.73233,49.072239 z"
       id="path6351"
       inkscape:connector-curvature="0" />
    <path
       style="fill:none;stroke:#ececec;stroke-width:1px;stroke-linecap:butt;stroke-linejoin:miter;stroke-opacity:1"
       d="m 1.1412148,172.48555 c 24.9428312,3.61175 50.3701032,1.32153 74.0769102,-5.76045 11.853404,-3.54099 12.088882,-3.47864 12.088882,-3.47864 m 66.560383,-45.49162 c 3.99012,-4.33166 5.58058,-6.7562 8.97667,-11.49602 6.79219,-9.479625 12.32742,-19.740862 16.33008,-30.644928 8.00532,-21.808131 9.88037,-46.187582 3.42023,-72.0281322"
       id="path6355"
       inkscape:connector-curvature="0"
       sodipodi:nodetypes="csccssc" />
    <path
       sodipodi:type="star"
       style="color:#000000;fill:none;stroke:#000000;stroke-width:0.69648361;stroke-linecap:round;stroke-linejoin:miter;stroke-miterlimit:4;stroke-opacity:1;stroke-dasharray:none;stroke-dashoffset:0;marker:none;visibility:visible;display:inline;overflow:visible;enable-background:accumulate"
       id="path6367"
       sodipodi:sides="5"
       sodipodi:cx="562.6189"
       sodipodi:cy="732.82202"
       sodipodi:r1="34.783661"
       sodipodi:r2="17.391829"
       sodipodi:arg1="0.71574359"
       sodipodi:arg2="1.3440621"
       inkscape:flatsided="false"
       inkscape:rounded="0"
       inkscape:randomized="0"
       d="m 588.86684,755.64632 -22.33832,-5.8776 -17.50576,15.06967 -1.31299,-23.06128 -19.74169,-11.99218 21.52685,-8.37506 5.30472,-22.48125 14.61731,17.88522 23.02019,-1.902 -12.49285,19.42873 z"
       inkscape:transform-center-x="0.29245454"
       inkscape:transform-center-y="2.4804609"
       transform="matrix(1.4001855,-0.31773581,0.31773581,1.4001855,-385.46934,-105.7503)" />
  </g>
  <g
     inkscape:groupmode="layer"
     id="layer22"
     inkscape:label="shadow"
     style="display:inline"
     transform="translate(0,-308.26522)" />
  <g
     inkscape:label="Orig"
     inkscape:groupmode="layer"
     id="layer1"
     style="display:inline"
     transform="translate(0,-308.26522)">
    <path
       style="fill:#ffffff;stroke:#000000;stroke-width:0.7115733px;stroke-linecap:butt;stroke-linejoin:miter;stroke-opacity:1;display:inline"
       d="m 315.61919,898.08633 c 0,0 7.21685,-9.7286 15.31293,-18.09628 8.09608,-8.36768 30.85842,-23.46359 43.25598,-47.13882 12.39756,-23.67524 12.81209,-43.71974 9.06385,-49.73482 -3.74826,-6.01509 -2.36104,-14.74407 -2.36104,-14.74407 0,0 -3.14489,14.11217 -6.29054,20.11932 -3.14565,6.00715 -28.59086,28.25306 -40.61909,43.11655 -12.02823,14.86349 -21.18741,34.38116 -21.55635,47.24541 -0.36895,12.86426 3.19426,19.23271 3.19426,19.23271 z"
       id="path5034"
       inkscape:connector-curvature="0" />
    <path
       style="fill:none;stroke:#999999;stroke-width:0.51889652px;stroke-linecap:butt;stroke-linejoin:miter;stroke-opacity:1;display:inline"
       d="m 316.12079,896.96835 c 0,0 2.52609,-34.73404 20.52464,-53.67987 17.99854,-18.94583 34.73405,-33.78673 37.89169,-40.10202 3.15762,-6.31527 6.63104,-23.68229 6.63104,-23.68229"
       id="path5048"
       inkscape:connector-curvature="0" />
    <path
       style="fill:none;stroke:#999999;stroke-width:0.51889652px;stroke-linecap:butt;stroke-linejoin:miter;stroke-opacity:1;display:inline"
       d="m 317.06807,897.59988 c 0,0 10.10444,-29.68182 19.57736,-38.83897 9.47291,-9.15715 31.5764,-32.20791 35.36557,-38.83896 3.78917,-6.63104 12.94632,-27.15569 12.94632,-27.15569"
       id="path5050"
       inkscape:connector-curvature="0" />
    <path
       style="fill:#ffffff;stroke:#000000;stroke-width:0.51889652px;stroke-linecap:butt;stroke-linejoin:miter;stroke-opacity:1;display:inline"
       d="m 114.7359,695.18837 c 3.31122,20.69507 30.76339,46.09483 27.45219,57.68407 -3.31121,11.58923 -8.937,15.87581 -13.06599,16.37994 -4.13902,0.50537 -11.35722,-0.65589 -11.35722,-0.65589 0,0 7.44741,7.86861 17.38104,5.3852 9.93363,-2.48341 12.4101,-3.72822 12.4101,-3.72822 0,0 -2.61352,6.31862 -11.30545,7.97423 -8.69193,1.6556 -17.15665,-2.9515 -17.15665,-2.9515 0,0 13.3526,12.75837 28.66695,8.61936 m 15.07119,-15.72146 c 6.95596,-2.60848 25.5113,-6.66384 26.96047,-9.56216 1.30013,-2.60028 0.54062,-6.64778 0.36246,-7.49093 -3.93592,-1.67138 -14.49596,-4.4999 -20.57419,-8.14683 -6.20851,-3.72511 -11.99963,-7.87857 -16.55254,-17.3983 -1.3276,-2.77587 -2.88748,-8.4107 -4.40136,-15.20625 -3.24227,-0.0801 -8.91954,-3.27413 -12.97969,-5.48875 -4.55291,-2.4834 -9.11373,-17.8001 -9.52763,-23.59472 -0.29483,-4.12754 3.60557,-7.83441 8.42298,-9.47586 2.05646,8.26415 8.97532,14.86105 8.97532,14.86105 0,0 3.29876,-9.93254 5.78217,-19.45227 2.48341,-9.51973 7.44122,-18.21228 9.92463,-21.52349 2.48341,-3.31122 4.97094,-7.04217 4.97094,-7.04217 0,0 2.89071,-1.65835 12.82434,-3.31396 9.93364,-1.65561 11.59606,-4.54288 28.97991,-8.68189 0,0 1.94108,-0.16968 5.31614,-0.18987 2.02505,-0.0121 4.55915,0.0346 7.5082,0.18987 7.86413,0.4139 26.07152,4.95987 36.41907,12.41009 9.07989,6.53754 18.17508,37.9036 20.26349,45.49794 -1.44859,22.8061 -6.24267,42.15462 -10.32161,47.24122 -4.73715,5.90741 -19.0459,12.04712 -25.2517,15.74132 0.339,-0.19761 0.71025,-0.39918 1.0874,-0.60411 -0.001,1.16176 0.071,2.66781 0.36246,4.12519 l 0.86301,4.34958 c 0,0 13.63976,-4.63941 22.33472,-4.34958 6.36406,0.21214 12.72103,2.75907 16.81145,4.90191 3.91118,0.37127 9.78655,-5.31615 9.78655,-5.31615 0,0 -2.57157,0.96705 -5.52327,0.55233 -1.76116,-0.24745 -5.3925,-1.10818 -8.47477,-1.84684 -2.15205,-0.51575 -4.38409,-1.5189 -4.38409,-1.5189 0,0 7.7909,1.62246 10.54599,1.62246 8.69194,0 13.68735,-3.77999 13.68735,-3.77999 0,0 -5.79989,0.73957 -10.45969,0.10356 -4.6598,-0.63601 -4.67635,-1.47534 -9.9764,-2.76164 0.0208,-0.0633 0.0272,-0.069 0.0345,-0.0863 0.006,-0.0182 0.0192,-0.0175 0.0345,-0.069 4.49051,0.83753 9.51732,2.32342 13.98078,2.01945 6.53909,-0.44535 9.3723,-4.97095 9.3723,-4.97095 0,0 -6.41147,1.66821 -9.47586,1.44986 -4.04745,-0.2884 -6.47061,-0.82296 -9.49312,-2.76163 -0.93424,-0.59923 -1.85233,-2.92883 -2.22657,-6.57614 -0.37425,-3.64732 3.69638,-22.34092 2.12301,-29.84292 -2.20055,-30.42154 -0.67897,-50.27652 -9.13066,-73.4595 -1.52015,-4.16979 -7.24929,-11.16736 -7.24929,-11.16736 l -3.40027,-2.58903 c -1.83403,-1.84779 -3.71683,-3.58664 -5.57505,-5.21259 1.67463,0.36995 3.75815,0.88188 6.29998,1.58795 7.45023,2.0695 10.3285,13.25235 18.60652,29.80839 8.27802,16.55605 16.55255,36.81605 16.55255,36.81605 0,-8.27803 -13.65284,-47.18944 -13.65284,-47.18944 0,0 3.31603,1.24479 5.79944,3.72821 2.4834,2.4834 5.38519,9.11339 5.38519,9.11339 0,0 -0.003,-8.28938 -2.89972,-13.67009 -2.89731,-5.38072 -15.72406,-15.30982 -15.72406,-15.30982 0,0 7.03007,-2.89971 13.23859,-2.89971 6.20852,0 12.8416,2.08849 12.8416,2.08849 0,0 -1.66179,-3.72993 -7.45641,-5.79944 -5.79462,-2.06951 -16.13831,-1.24274 -16.13831,-1.24274 0,0 7.4457,-5.38484 15.30982,-4.97094 7.86412,0.4139 20.695,2.07123 20.695,2.07123 0,0 -20.69769,-9.52764 -44.70397,-9.52764 -14.37641,0 -22.93843,2.22022 -27.51279,4.00436 -5.49437,-2.12753 -11.42597,-4.10237 -13.46297,-2.74437 -0.12422,0.0828 -0.23751,0.17341 -0.3452,0.27616 -6.68729,-1.39201 -13.64832,-2.31783 -17.86433,-2.76163 -0.73727,-0.0776 -1.46631,-0.11894 -2.15753,-0.10356 -6.6818,0.14872 -11.08106,4.22875 -11.08106,4.22875 0,0 -7.46501,-2.48374 -17.81255,-0.41424 -3.40531,0.68106 -8.02381,3.12838 -12.87612,6.4208 -6.29826,2.06633 -12.78478,5.00618 -18.23401,7.63795"
       id="path3086"
       inkscape:connector-curvature="0"
       sodipodi:nodetypes="csscscscccscsscssccsscsccsscsccccsccsscscscccscssscscccssccscccscscscscccsscscc" />
    <path
       style="fill:none;stroke:#000000;stroke-width:0.51889652px;stroke-linecap:butt;stroke-linejoin:miter;stroke-opacity:1;display:inline"
       d="m 211.324,626.47385 c -3.37508,0.0202 -5.31869,0.17837 -5.31869,0.17837 -17.38385,4.13901 -19.0435,7.03591 -28.97712,8.69151 -9.93364,1.65561 -12.82648,3.30797 -12.82648,3.30797 0,0 -2.49476,3.72632 -4.97816,7.03754 -2.48341,3.3112 -7.44049,12.01447 -9.9239,21.5342 -2.4834,9.51973 -5.78894,19.44241 -5.78894,19.44241 0,0 -6.91073,-6.58927 -8.96718,-14.85342 -4.81742,1.64145 -8.7269,5.34232 -8.43207,9.46987 0.41391,5.79461 4.98181,21.11016 9.53473,23.59357 4.06014,2.21462 9.74635,5.41693 12.98862,5.49706 1.51388,6.79555 3.06681,12.43428 4.39441,15.21015 4.55291,9.51973 10.34752,13.65792 16.55604,17.38304 6.20852,3.72511 17.08996,6.6143 20.81507,8.26991 3.72512,1.65561 9.92674,5.79239 15.30745,6.62019 5.38072,0.8278 6.45919,0.45292 11.46232,-0.11556 7.28548,-0.8278 16.53704,-5.83382 21.1203,-9.14367 4.84055,-3.49562 21.69056,-10.28373 26.90155,-16.78203 4.07894,-5.08659 8.86448,-24.43482 10.31307,-47.24092 -2.08842,-7.59433 -11.17328,-38.9632 -20.25319,-45.50074 -10.34753,-7.45022 -28.55593,-12.00718 -36.42005,-12.42108 -2.94905,-0.15522 -5.48273,-0.1905 -7.50778,-0.17837 z"
       id="path3096"
       inkscape:connector-curvature="0"
       sodipodi:nodetypes="scscssccsscssssssscsss" />
    <path
       style="fill:#000000;stroke:none;display:inline"
       d="m 189.4461,681.70395 c 0,0 -1.27703,-1.20254 -10.14058,-0.62086 -9.5715,0.62817 -20.59159,6.93286 -20.59159,6.93286 0,0 8.97271,-3.57042 13.24484,-4.34596 2.49321,-0.45262 6.61453,-0.5612 9.10583,-0.62085 1.59718,-0.0382 5.4842,0.20695 8.3815,-1.34519 z"
       id="path3423"
       inkscape:connector-curvature="0"
       sodipodi:nodetypes="cscssc" />
    <path
       style="fill:#000000;stroke:none;display:inline"
       d="m 226.28331,678.80664 c 0,0 7.45022,-4.13901 12.00314,-4.96681 4.55291,-0.82781 11.58923,-0.82781 11.58923,-0.82781 0,0 -4.23807,0.65924 -6.312,0.93128 -1.30785,0.17156 -3.90619,1.37105 -6.07917,1.51333 -2.17298,0.14228 -5.76875,1.17703 -6.85524,1.59093 -1.93392,0.73674 -4.34596,1.75908 -4.34596,1.75908 z"
       id="path3425"
       inkscape:connector-curvature="0"
       sodipodi:nodetypes="cscsssc" />
    <path
       style="fill:#cccccc;stroke:none;display:inline"
       d="m 194.30944,696.6044 c 0,0 -1.44865,4.24249 -4.13902,7.24327 -2.69035,3.00079 -3.82858,4.75986 -3.82858,4.75986 0,0 1.13823,-0.72432 2.06951,-1.34517 0.93127,-0.62086 0.8278,1.55212 0.8278,2.27645 0,0.72433 0.51737,9.41625 -0.20695,12.10661 -0.72433,2.69036 -3.20774,9.31278 -3.20774,9.31278 0,0 4.13901,-9.2093 4.13901,-13.76222 0,-4.55291 -0.62085,-10.55448 0,-11.58923 0.62085,-1.03475 3.62164,-4.55291 4.34597,-9.00235 z"
       id="path3427"
       inkscape:connector-curvature="0" />
    <path
       style="fill:#cccccc;stroke:none;display:inline"
       d="m 222.7596,690.60665 c 0,0 -2.38252,0.72614 -3.10684,2.17479 -0.72433,1.44865 -1.22548,2.98696 -1.22548,4.12519 0,1.13824 0.10356,1.3463 0.10356,1.3463 0,0 0.91548,-3.40087 1.74328,-4.1252 0.46245,-0.40463 1.09879,-0.57706 1.58795,-0.65588 0.68439,1.59602 0.6904,2.91697 0.6904,2.91697 0,0 1.76322,1.3494 4.97094,5.07451 3.20774,3.72511 5.07451,17.58816 5.07451,17.58816 0,0 -0.72527,-6.61239 -1.13917,-8.68189 -0.4139,-2.0695 -1.34853,-6.83866 -4.0389,-11.18462 -1.75671,-2.83778 -3.76224,-4.76675 -4.95367,-5.78217 0.0216,-5.2e-4 0.0863,0 0.0863,0 l 0.20713,-2.79616 z"
       id="path3429"
       inkscape:connector-curvature="0" />
    <path
       style="fill:#cccccc;stroke:none;display:inline"
       d="m 219.35046,683.66999 c 0,0 -6.82937,3.3112 -11.79618,3.51815 -4.96681,0.20695 -10.24406,-1.6556 -10.24406,-1.6556 0,0 4.75987,2.58689 9.72668,2.17298 4.96681,-0.4139 12.31356,-4.03553 12.31356,-4.03553 z"
       id="path3435"
       inkscape:connector-curvature="0" />
    <path
       style="fill:#cccccc;stroke:none;display:inline"
       d="m 220.38521,683.66999 c 0,0 -4.34595,6.20851 -11.6927,7.03632 -7.34675,0.8278 -15.62478,-3.82859 -15.62478,-3.82859 0,0 6.93285,6.10504 14.59003,5.17376 7.65717,-0.93127 12.72745,-8.38149 12.72745,-8.38149 z"
       id="path3437"
       inkscape:connector-curvature="0" />
    <path
       style="fill:none;stroke:#000000;stroke-width:0.51889652px;stroke-linecap:butt;stroke-linejoin:miter;stroke-opacity:1;display:inline"
       d="m 222.66167,696.50092 c 0,0 2.17299,5.48419 -2.0695,5.58767 -4.24249,0.10347 -6.00157,1.03475 -7.45022,2.06951 -1.44866,1.03475 -5.07029,1.75908 -7.13981,0.72432 -2.0695,-1.03475 -4.24248,-1.34518 -7.03631,-1.34518 -2.79384,0 -4.24249,-0.51738 -4.86334,-1.6556 -0.62086,-1.13823 -0.72433,-2.27645 -0.72433,-2.27645 l -0.20695,0.51737 0,0 0,0"
       id="path3439"
       inkscape:connector-curvature="0" />
    <path
       style="font-size:medium;font-style:normal;font-variant:normal;font-weight:normal;font-stretch:normal;text-indent:0;text-align:start;text-decoration:none;line-height:normal;letter-spacing:normal;word-spacing:normal;text-transform:none;direction:ltr;block-progression:tb;writing-mode:lr-tb;text-anchor:start;baseline-shift:baseline;color:#000000;fill:#999999;stroke:none;stroke-width:0.25;marker:none;visibility:visible;display:inline;overflow:visible;enable-background:accumulate;font-family:Sans;-inkscape-font-specification:Sans"
       d="m 248.58726,658.43463 c -3.0199,0.0119 -6.63806,0.14064 -9.01583,0.61619 -2.41952,0.48391 -5.78628,2.25887 -8.578,3.90794 -2.79174,1.64907 -4.99438,3.17824 -4.99438,3.17824 a 0.31136906,0.31136906 0 1 0 0.35674,0.50268 c 0,0 2.19188,-1.50954 4.96194,-3.14581 2.77007,-1.63627 6.13034,-3.3957 8.36721,-3.84307 4.39451,-0.8789 13.27598,-0.52812 13.92913,-0.50268 a 0.31136906,0.31136906 0 0 0 0.56754,0.0324 l 0.11351,-0.2108 0.2108,-0.4216 -0.47025,-0.0162 c 0,0 -2.42851,-0.10919 -5.44841,-0.0973 z"
       id="path3468"
       inkscape:connector-curvature="0" />
    <path
       style="font-size:medium;font-style:normal;font-variant:normal;font-weight:normal;font-stretch:normal;text-indent:0;text-align:start;text-decoration:none;line-height:normal;letter-spacing:normal;word-spacing:normal;text-transform:none;direction:ltr;block-progression:tb;writing-mode:lr-tb;text-anchor:start;baseline-shift:baseline;color:#000000;fill:#999999;stroke:none;stroke-width:0.25;marker:none;visibility:visible;display:inline;overflow:visible;enable-background:accumulate;font-family:Sans;-inkscape-font-specification:Sans"
       d="m 171.30411,664.82355 c -3.12078,-0.11703 -6.28422,-0.003 -8.22127,0.53511 -3.74259,1.0396 -6.97267,2.28638 -6.97267,2.28638 a 0.31317526,0.31317526 0 0 0 0.22701,0.58376 c 0,0 3.20018,-1.24028 6.90781,-2.27017 1.78807,-0.49668 4.93895,-0.63469 8.02668,-0.5189 3.08774,0.11579 6.13472,0.49048 7.73481,0.9405 1.58969,0.4471 4.48854,1.83592 6.94024,3.11338 2.45169,1.27747 4.47548,2.44854 4.47548,2.44854 a 0.31982114,0.31982114 0 1 0 0.32431,-0.55132 c 0,0 -2.06075,-1.16499 -4.52413,-2.44854 -2.46339,-1.28356 -5.31601,-2.67786 -7.03753,-3.16203 -1.71112,-0.48125 -4.75996,-0.83969 -7.88074,-0.95671 z"
       id="path3470"
       inkscape:connector-curvature="0" />
    <path
       style="fill:#000000;stroke:none;display:inline"
       d="m 186.49796,729.19304 -0.25393,0.63484 c 0,0 1.10038,0.84644 1.69289,1.05806 0.59252,0.21161 1.1427,0.38089 1.1427,0.38089 0,0 -1.98915,-1.05805 -2.32772,-1.43895 -0.33858,-0.3809 -0.25394,-0.63484 -0.25394,-0.63484 z"
       id="path4361"
       inkscape:connector-curvature="0" />
    <path
       style="fill:#e6e6e6;stroke:none;display:inline"
       d="m 185.78456,680.99041 c 0.004,0.25176 0.009,0.53945 -0.0162,0.84321 -0.0313,0.37577 -0.29293,0.76106 -0.53511,1.05401 1.40678,-0.15999 2.91116,-0.48469 4.21603,-1.18373 0,0 -0.58736,-0.5344 -3.6647,-0.71349 z"
       id="path4363"
       inkscape:connector-curvature="0" />
    <path
       style="fill:none;stroke:#000000;stroke-width:0.25944826;stroke-linecap:butt;stroke-linejoin:miter;stroke-miterlimit:4;stroke-opacity:1;stroke-dasharray:none;display:inline"
       d="m 220.95602,718.0753 -1.49183,1.05401 c -0.22766,0.16341 -0.28259,0.48132 -0.12972,0.71348 -0.0494,0.0367 -0.0961,0.0768 -0.14594,0.11351 -0.004,-0.003 -0.0127,0.003 -0.0162,0 -0.11868,-0.0911 -0.2761,-0.13709 -0.4216,-0.11351 -0.0666,0.0108 -0.11747,0.0267 -0.17838,0.0649 l -2.33503,1.45939 c -0.20794,0.13025 -0.28606,0.37799 -0.21081,0.59997 -0.0524,0.0208 -0.14737,0.0592 -0.21079,0.0811 -0.0766,-0.25265 -0.31921,-0.41086 -0.58377,-0.35674 l -3.29175,0.66483 c -0.27621,0.0565 -0.45292,0.32401 -0.40538,0.59997 -0.0219,0.004 -0.0428,0.0127 -0.0649,0.0162 -0.0553,-0.2573 -0.28355,-0.43588 -0.55132,-0.40539 l -2.96744,0.34053 c -0.2687,0.0306 -0.45881,0.25412 -0.45404,0.5189 -0.0566,-0.25057 -0.28831,-0.42949 -0.55133,-0.40539 l -2.74042,0.25944 c -0.24206,0.0222 -0.4177,0.20789 -0.45404,0.43782 -0.005,1.9e-4 -0.0107,-1.9e-4 -0.0162,0 0,-0.28747 -0.23142,-0.51889 -0.51889,-0.51889 l -2.43232,0 c -0.28184,0 -0.51007,0.22306 -0.51891,0.50268 -0.0166,-10e-4 -0.0321,0.001 -0.0486,0 0.001,-0.25883 -0.1908,-0.48446 -0.45404,-0.5189 l -2.17288,-0.27566 c -0.26188,-0.0342 -0.50103,0.12606 -0.56754,0.37295 -0.0714,-0.0141 -0.12539,-0.0344 -0.19459,-0.0486 0.0493,-0.26156 -0.0963,-0.52523 -0.35674,-0.59998 l -1.37832,-0.38917 c -0.21538,0.0662 -0.43915,0.13473 -0.64862,0.19459 -3.14697,0.89913 -5.44781,0.44335 -5.62678,0.40539 l -0.0649,0.12971 c 0,0 3.74444,3.28441 6.16189,4.29712 5.76979,2.41708 14.12678,2.57627 18.24245,1.39453 6.89062,-1.97849 14.96689,-8.00753 16.88036,-9.48607 0.0416,-0.0321 0.0291,-0.0209 0.0649,-0.0486 l 0.25945,-0.25945 c -2.1027,0.0813 -5.12061,0.14922 -6.59972,-0.0973 -0.91043,-0.15174 -1.85221,-0.42819 -2.80528,-0.69726 z m -32.23645,4.99437 -0.12973,0.30811 0.0162,0.0162 0.11351,-0.32432 z"
       id="path4253"
       inkscape:connector-curvature="0" />
    <path
       style="fill:none;stroke:#000000;stroke-width:0.25944826;stroke-linecap:butt;stroke-linejoin:miter;stroke-miterlimit:4;stroke-opacity:1;stroke-dasharray:none;display:inline"
       d="m 211.75216,720.09513 c 1.72846,-0.38029 2.02722,-2.3391 4.60023,-2.65098 2.57302,-0.31188 5.06806,0.93564 7.40717,1.32549 2.3391,0.38985 8.81062,0 8.81062,0 l -0.23391,-1.32549 c 0,0 -3.66459,0.23392 -5.76979,-0.23391 -2.10519,-0.46782 -7.40716,-2.18317 -10.37003,-1.87129 -2.96286,0.31189 -4.6782,1.48144 -4.6782,1.48144 0,0 -1.63738,-0.93565 -4.52227,-0.70173 -2.8849,0.23391 -12.5532,4.21039 -14.65839,4.52227 -2.1052,0.31188 -3.11881,0.62376 -3.11881,0.62376 l -0.46782,1.5594 c 0,0 2.41708,0.54579 5.69182,-0.38985 3.27475,-0.93564 7.3292,-2.72896 10.37003,-2.96286 3.04084,-0.23392 4.67115,1.12281 6.93935,0.62375 z"
       id="path4249"
       inkscape:connector-curvature="0"
       sodipodi:nodetypes="sssccsscssccsss" />
    <path
       style="fill:none;stroke:#000000;stroke-width:0.25944826;stroke-linecap:butt;stroke-linejoin:miter;stroke-miterlimit:4;stroke-opacity:1;stroke-dasharray:none;display:inline"
       d="m 230.46499,718.84762 c 0,0 -9.43439,7.5631 -17.30937,9.82424 -4.11568,1.18172 -12.47523,1.01361 -18.24502,-1.40347 -2.41745,-1.01271 -6.15964,-4.28836 -6.15964,-4.28836 l -0.70173,2.10519 c 0,0 3.94091,3.81368 7.87499,5.224 4.13241,1.48144 11.30567,1.71534 15.1262,1.63738 3.82054,-0.078 9.74627,-3.43069 12.94305,-5.61385 3.19677,-2.18316 8.49874,-7.48513 8.49874,-7.48513 z"
       id="path4251"
       inkscape:connector-curvature="0"
       sodipodi:nodetypes="cssccssscc" />
    <path
       style="fill:none;stroke:#000000;stroke-width:0.51889652px;stroke-linecap:butt;stroke-linejoin:miter;stroke-opacity:1;display:inline"
       d="m 331.27147,820.50137 c -0.8695,-3.47798 -2.35287,-12.62299 -6.99018,-19.28911 -4.63731,-6.66614 -14.21519,-17.96712 -17.98301,-22.60444 -3.76782,-4.6373 -9.50027,-10.77774 -13.40944,-14.06657 -3.06003,-2.69443 -5.12913,-4.48207 -8.02744,-6.51089 -2.89832,-2.02883 -11.59067,-6.66663 -20.28561,-6.95645 -8.69497,-0.28984 -22.32877,4.34575 -22.32877,4.34575 l -0.85945,-4.34578 c -0.29147,-1.45738 -0.37377,-2.9732 -0.37296,-4.13496 -1.07616,0.58475 -2.01462,1.14155 -2.72421,1.65398 -4.58326,3.30985 -13.82712,8.31775 -21.11259,9.14555 -5.00314,0.56848 -6.08366,0.94131 -11.46438,0.11351 -5.38071,-0.8278 -11.58234,-4.96032 -15.30744,-6.61593 -0.0782,-0.0348 -0.17507,-0.0777 -0.25945,-0.11351 0.17817,0.84315 0.9434,4.89129 -0.35674,7.49157 -1.44916,2.89832 -19.99423,6.95867 -26.95019,9.56716 -6.95597,2.60849 -14.20496,12.74179 -16.52361,19.11809 -0.15351,0.42214 -0.23387,0.97598 -0.24323,1.62155 -4.64776,8.76005 -10.08606,26.2877 -10.08606,31.92835 0,5.84119 0.37296,23.73952 0.37296,23.73952 0,0 -6.2083,6.5567 -9.85904,10.57252 -3.65073,4.01581 -13.15078,22.27697 -13.15078,27.38801 0,5.11103 -2.5321,15.8762 -2.5321,15.8762 m 15.9013,8.02668 c 0,0 2.86374,-1.87044 6.09255,-4.33412 m 13.99409,-18.28115 c 3.51345,-6.97907 9.803,-19.90168 9.98553,-22.09212 0.36508,-4.38089 2.93366,-4.02754 5.12411,-7.3132 1.40028,-2.10044 2.93983,-8.34357 3.8755,-12.59945 2.59042,6.61926 5.68012,16.87029 8.42561,24.62453 M 275.44118,865.942 c 0,0 2.43733,-47.83669 3.17721,-59.71915 1.50479,1.86408 3.10147,3.54863 4.78358,4.84844 6.3763,4.92713 19.71004,12.16368 20.86937,12.45351"
       id="path4486"
       inkscape:connector-curvature="0"
       sodipodi:nodetypes="csscsscccsssccssscscssccccssccccsc" />
    <path
       style="fill:#999999;stroke:none;display:inline"
       d="m 300.86541,823.95408 c 0,0 7.21022,0.73016 9.21812,1.00395 2.0079,0.27381 9.81136,2.6468 9.81136,2.6468 0,0 -4.10708,-2.28171 -5.93245,-2.73806 -1.82537,-0.45634 -4.9285,-1.14086 -4.9285,-1.14086 0,0 5.01977,0.22817 6.93641,0.86705 1.91663,0.63888 5.61301,2.37298 5.61301,2.37298 0,0 -2.14482,-2.23607 -4.88286,-3.05749 -2.73806,-0.82142 -6.16063,-1.36903 -6.16063,-1.36903 0,0 5.79555,0.77579 7.48402,0.86705 1.68846,0.0913 4.01581,-0.54761 4.01581,-0.54761 0,0 -3.37693,0.31944 -6.98204,-0.18253 -3.60511,-0.50198 -4.60906,-0.82142 -4.60906,-0.82142 0,0 3.55947,-0.22817 6.11499,-0.91268 2.55552,-0.68452 2.78369,-1.27777 2.78369,-1.27777 0,0 -13.69027,2.41862 -15.92635,2.50989 -2.23608,0.0913 -2.23608,0.0456 -2.23608,0.0456 l 2.09918,1.00396 z"
       id="path4581"
       inkscape:connector-curvature="0" />
    <path
       style="fill:#999999;stroke:none;display:inline"
       d="m 162.14233,832.70279 c 1.46271,7.25137 2.4972,12.95619 2.4972,12.95619 l 1.23238,-3.94036 c 0,0 -1.4192,-4.80093 -2.56206,-8.67531 l -1.16752,-0.34052 z"
       id="path4793"
       inkscape:connector-curvature="0" />
    <path
       style="fill:#ffffff;stroke:#000000;stroke-width:0.51889652px;stroke-linecap:butt;stroke-linejoin:miter;stroke-opacity:1;display:inline"
       d="m 221.07585,895.07376 c 0,0 -14.52513,-17.68278 -28.73452,-18.3143 -14.20937,-0.63153 -27.78722,0 -35.04979,1.89457 -7.26257,1.8946 -25.26112,12.94633 -25.26112,29.68182 0,16.73549 22.73501,33.47097 35.0498,38.20743 12.3148,4.73646 46.10154,11.99903 66.62618,11.99903 20.52467,0 40.73355,-11.3675 53.67987,-17.36701 12.94632,-5.99952 29.6818,-18.63007 29.6818,-29.99758 0,-11.3675 3.78918,-17.68278 6.31529,-21.47194 2.52611,-3.78917 3.78916,-9.47292 -3.15765,-1.89459 -6.94679,7.57833 -8.84139,23.36653 -12.31479,25.89264 -3.4734,2.52611 -14.8409,8.8414 -20.52465,9.47292 -5.68375,0.63153 -6.02949,0.94585 -6.02949,0.94585 l -0.28578,10e-4"
       id="path5036-7"
       inkscape:connector-curvature="0"
       sodipodi:nodetypes="cssssssssssscc" />
    <path
       style="color:#000000;fill:none;stroke:#000000;stroke-width:0.64862061;stroke-miterlimit:4;stroke-dasharray:none;marker:none;visibility:visible;display:inline;overflow:visible;enable-background:accumulate"
       d="m 250.6142,800.04474 c -12.39478,0 -26.34,2.5456 -33.63098,5.72408 2.05546,1.0417 3.4539,3.16478 3.4539,5.62678 0,1.53415 -0.53352,2.94347 -1.44318,4.03766 7.84823,2.81426 20.925,4.68629 32.36617,4.68629 17.74298,0 24.80974,-4.49273 24.80974,-10.03741 0,-5.54468 -7.81267,-10.0374 -25.55565,-10.0374 z"
       id="path4584"
       inkscape:connector-curvature="0" />
    <path
       style="color:#000000;fill:none;stroke:#000000;stroke-width:0.64862061;stroke-miterlimit:4;stroke-dasharray:none;marker:none;visibility:visible;display:inline;overflow:visible;enable-background:accumulate"
       d="m 255.12211,790.7046 c -3.84579,-0.0231 -8.02419,0.32686 -12.38865,1.11887 -13.18301,2.3923 -24.09703,8.22032 -28.23122,13.28051 3.31409,0.19316 5.93488,2.92909 5.93488,6.29162 0,3.47699 -2.80252,6.30655 -6.2754,6.32405 3.9114,4.95588 15.82209,10.41823 29.95006,11.83733 17.65414,1.77329 31.92835,-3.4686 32.64183,-8.96718 0.41016,-3.16099 -0.13137,-5.39846 -1.63776,-7.03754 -0.003,-0.003 0.003,-0.0135 0,-0.0162 0.71523,-1.07637 1.054,-2.24101 1.054,-3.45391 0,-1.50276 -0.57763,-2.91989 -1.76749,-4.19982 1.76965,-1.8319 2.30627,-4.25132 1.57291,-7.71859 -0.86054,-4.0685 -9.31577,-7.3898 -20.85316,-7.45913 z"
       id="path4584-1"
       inkscape:connector-curvature="0" />
    <path
       style="color:#000000;fill:none;stroke:#000000;stroke-width:0.64862061;stroke-miterlimit:4;stroke-dasharray:none;marker:none;visibility:visible;display:inline;overflow:visible;enable-background:accumulate"
       d="m 193.92475,804.7148 c -5.25503,0.0276 -10.87185,0.42844 -16.102,1.2486 -16.7365,2.6245 -23.41373,7.88386 -22.57201,12.9562 0.84172,5.07234 8.20298,8.13777 24.93947,5.51327 10.51847,-1.64943 22.22302,-5.15378 29.269,-8.7888 -1.02165,-1.12201 -1.63776,-2.61146 -1.63776,-4.24847 0,-2.1349 1.05386,-4.01346 2.67556,-5.15654 -4.069,-1.02252 -10.04186,-1.55857 -16.57226,-1.52426 z"
       id="path4584-0"
       inkscape:connector-curvature="0" />
    <path
       style="color:#000000;fill:none;stroke:#000000;stroke-width:0.64862061;stroke-miterlimit:4;stroke-dasharray:none;marker:none;visibility:visible;display:inline;overflow:visible;enable-background:accumulate"
       d="m 182.44417,797.25567 c -3.65266,0.0122 -7.10951,0.31075 -10.28064,0.82699 -10.87239,1.77002 -18.34024,6.05848 -18.53434,9.90768 -0.1654,3.28037 0.712,5.41266 2.65935,6.82673 -0.92807,1.34691 -1.26592,2.72779 -1.0378,4.10253 0.18413,1.10957 0.6862,2.12098 1.52426,2.99987 -0.001,0.003 0.002,0.0131 0,0.0162 -1.17212,1.72227 -1.33699,3.84975 -0.47025,6.68079 1.50773,4.92465 15.75567,7.60642 32.13916,3.37283 12.28762,-3.17519 22.20061,-9.31862 25.8151,-14.28587 -0.0435,10e-4 -0.086,0.0162 -0.12972,0.0162 -3.48784,0 -6.30784,-2.83622 -6.30784,-6.32405 0,-2.9925 2.07059,-5.49414 4.86466,-6.14568 -4.66027,-4.02177 -15.85913,-7.73932 -28.66904,-7.97803 -0.52964,-0.01 -1.05109,-0.018 -1.5729,-0.0162 z"
       id="path4584-1-4"
       inkscape:connector-curvature="0" />
    <path
       sodipodi:type="arc"
       style="color:#000000;fill:none;stroke:#000000;stroke-width:1.25;stroke-miterlimit:4;stroke-dasharray:none;marker:none;visibility:visible;display:inline;overflow:visible;enable-background:accumulate"
       id="path4808"
       sodipodi:cx="362.07513"
       sodipodi:cy="504.077"
       sodipodi:rx="12.170592"
       sodipodi:ry="12.170592"
       d="m 374.24573,504.077 a 12.170592,12.170592 0 1 1 -24.34119,0 12.170592,12.170592 0 1 1 24.34119,0 z"
       transform="matrix(0.51889653,0,0,0.51889653,26.249513,549.83253)" />
    <path
       style="fill:#ffffff;stroke:#000000;stroke-width:0.7115733px;stroke-linecap:butt;stroke-linejoin:miter;stroke-opacity:1;display:inline"
       d="m 315.50819,898.07328 c 0,0 22.64099,-8.7124 40.65911,-5.1864 18.01814,3.526 35.77425,9.16523 48.68963,0.891 12.91537,-8.27424 29.04873,-38.20885 34.69142,-45.07579 5.64269,-6.86694 21.15867,-6.77555 21.15867,-6.77555 0,0 -16.13483,-15.85305 -30.14385,-16.64854 -14.00903,-0.79548 -34.13196,-3.08918 -52.09218,11.52378 -17.96021,14.61297 -53.55711,44.80758 -56.48484,50.5304 -2.92776,5.72283 -6.47796,10.7411 -6.47796,10.7411 z"
       id="path4978"
       inkscape:connector-curvature="0" />
    <path
       style="fill:none;stroke:#000000;stroke-width:0.51889652px;stroke-linecap:butt;stroke-linejoin:miter;stroke-opacity:1;display:inline"
       d="m 276.09543,878.95557 c 1.26306,8.52563 10.65931,27.80145 8.1332,33.80097 -1.26305,2.99976 -1.10517,5.99951 -2.92081,10.93332"
       id="path4961-6"
       inkscape:connector-curvature="0"
       sodipodi:nodetypes="csc" />
    <path
       style="opacity:0.53333285;fill:none;stroke:#999999;stroke-width:0.51889652px;stroke-linecap:butt;stroke-linejoin:miter;stroke-opacity:1;display:inline"
       d="m 317.45179,896.70273 c 0,0 39.71831,-34.15265 54.24345,-45.52015 14.52513,-11.3675 53.67986,-26.52417 53.67986,-26.52417 l 0,0 0,0 0,0 0,0 0,0 0,0"
       id="path5038"
       inkscape:connector-curvature="0"
       sodipodi:nodetypes="csccccccc" />
    <path
       style="opacity:0.53333285;fill:none;stroke:#999999;stroke-width:0.51889652px;stroke-linecap:butt;stroke-linejoin:miter;stroke-opacity:1;display:inline"
       d="m 317.38458,896.67765 c 12.04239,-5.11527 22.19647,-10.55753 35.18075,-12.75726 12.68269,-0.57323 25.80116,1.23248 38.11365,-2.60421 5.98239,-2.54222 9.84362,-8.12439 14.34415,-12.5809 7.75926,-8.36575 14.63864,-17.74315 23.63788,-24.8297 7.14076,-3.89629 15.3374,-5.11473 23.04905,-7.44391 l 0.88366,-0.21933 0.88437,-0.21643"
       id="path5040"
       inkscape:connector-curvature="0"
       sodipodi:nodetypes="cccccccc" />
    <path
       style="opacity:0.53333285;fill:none;stroke:#999999;stroke-width:0.51889652px;stroke-linecap:butt;stroke-linejoin:miter;stroke-opacity:1;display:inline"
       d="m 317.38384,896.65258 c 0,0 32.20792,-20.20889 40.41779,-22.735 8.20986,-2.52611 42.94388,-21.47195 52.73256,-29.05028 9.78868,-7.57833 31.5764,-16.41972 31.5764,-16.41972"
       id="path5046"
       inkscape:connector-curvature="0" />
    <path
       style="fill:none;stroke:#000000;stroke-width:0.55232704;stroke-linecap:butt;stroke-linejoin:miter;stroke-miterlimit:4;stroke-opacity:1;stroke-dasharray:none;display:inline"
       d="m 281.38676,924.12405 c 0,0 -10.10444,1.26305 -26.2084,-1.89459 -16.10396,-3.15765 -42.31237,-8.52563 -45.15425,-9.47292 -2.84187,-0.9473 -10.73597,-4.42069 -10.73597,-4.42069 l 0,0"
       id="path5052"
       inkscape:connector-curvature="0" />
    <path
       style="fill:#ffffff;stroke:none;display:inline"
       d="m 286.01267,826.71926 c -5.33152,1.88448 -20.38844,17.78317 -21.26817,18.3575 0,0 -3.20149,0.97571 -5.76095,-5.51269 -1.60386,-4.06588 -4.83503,-8.79938 -5.69379,-9.22875 -2.61157,-1.30578 -11.65347,-1.25471 -18.71271,0.43782 -3.52961,0.84627 -5.60683,0.20869 -7.10239,1.91343 l 0.0973,0.0324 c -3.22689,0.29344 -6.23067,1.36601 -8.48071,3.61605 -2.63149,2.63149 2.52962,4.4324 2.52962,5.99975 0,0.49013 -6.44941,1.6465 -5.05924,4.42683 0.53318,1.06639 2.9612,2.79219 2.22152,3.16203 -6.65328,3.32663 1.26481,7.52624 1.26481,8.20505 0,3.29329 -1.944,7.26455 3.47012,7.26455 0,0 13.03487,3.16203 17.1398,3.16203 4.10493,0 9.78146,0.9464 12.30758,-0.63241 1.10709,-0.69193 2.2643,-1.55537 3.22689,-2.31881 0.46594,0.16125 1.01707,0.24323 1.70262,0.24323 6.37631,0 18.27538,0.87752 25.23135,-1.15131 6.95596,-2.02882 30.42473,-8.70601 35.64171,-13.05348 5.21697,-4.34748 10.42674,-15.06848 12.74539,-17.9668 m -66.48362,11.04277 c -0.0211,0.0189 -0.0439,0.0462 -0.0649,0.0649 l 0,-0.0324 z m -0.14593,0.0811 0.0324,0.0324 c -0.0186,0.0166 -0.0467,0.0324 -0.0649,0.0486 z"
       id="path5055-5"
       inkscape:connector-curvature="0"
       sodipodi:nodetypes="ccsssccssssscsscsssccccccccc" />
    <path
       style="fill:none;stroke:#000000;stroke-width:0.51889652px;stroke-linecap:butt;stroke-linejoin:miter;stroke-opacity:1;display:inline"
       d="m 264.65128,845.49883 c -1.64187,-1.05344 -3.56549,-1.44722 -4.4207,-3.15764 -1.71363,-3.42724 -3.67536,-10.36331 -6.94681,-11.99903 -2.61157,-1.30578 -11.64159,-1.2576 -18.70083,0.43494 -3.52962,0.84627 -5.61924,0.20904 -7.11481,1.91378"
       id="path5055"
       inkscape:connector-curvature="0"
       sodipodi:nodetypes="csssc" />
    <path
       style="fill:#999999;stroke:none;display:inline"
       d="m 140.5757,847.02109 c 0,0 6.53784,4.56156 9.74553,5.91866 3.20769,1.3571 4.68629,2.35126 4.68629,2.35126 0,0 -8.63383,-1.9798 -10.97791,-3.58364 -2.34409,-1.60384 -4.55656,-3.21067 -4.55656,-3.21067 0,0 4.68643,4.4417 7.524,5.67543 2.00623,0.87228 8.45172,2.33198 12.12921,3.1296 0.42428,-0.35353 0.866,-0.7312 1.32967,-1.16752 -2.0301,-0.72616 -4.51192,-1.64037 -6.68079,-2.57827 -4.5648,-1.97396 -13.19944,-6.53485 -13.19944,-6.53485 z"
       id="path4771"
       inkscape:connector-curvature="0" />
    <path
       style="fill:none;stroke:#000000;stroke-width:0.57918966px;stroke-linecap:butt;stroke-linejoin:miter;stroke-opacity:1;display:inline"
       d="m 123.87707,901.15456 c 2.81963,2.81963 2.81963,8.10645 5.63927,10.57362 2.81963,2.46718 2.11473,8.81135 3.17208,13.0408 1.05737,4.22945 2.46718,13.7457 -0.7049,14.09816 -3.17209,0.35246 -9.86872,-2.81963 -9.16381,-4.93436 0.70491,-2.11472 -2.46718,-16.56533 -2.46718,-16.56533 0,0 -11.98344,11.63098 -16.56534,14.80306 -4.581906,3.17209 -13.040798,10.92608 -15.50797,12.68835 -2.467187,1.76227 -6.696637,-2.11472 -3.172094,-5.99172 3.524538,-3.87699 8.106444,-9.51626 10.926079,-11.98343 2.819629,-2.46719 10.926075,-11.63099 12.335885,-14.09817 1.40981,-2.46718 6.34418,-2.46718 6.34418,-2.46718 l -1.40982,0"
       id="path5113"
       inkscape:connector-curvature="0"
       sodipodi:nodetypes="csssscssssscc" />
    <path
       style="fill:none;stroke:#000000;stroke-width:0.57918966px;stroke-linecap:butt;stroke-linejoin:miter;stroke-opacity:1;display:inline"
       d="m 84.049762,943.44905 c 0,0 -0.352457,-0.35246 -2.467179,1.76227 -2.114728,2.11471 -8.141901,-5.26551 -3.876999,-9.86872 6.345107,-6.84841 9.516265,-10.22117 13.040808,-13.74571 3.524542,-3.52453 8.458892,-13.7457 11.630988,-14.09816 3.17208,-0.35244 3.52454,-0.35244 3.52454,-0.35244"
       id="path5119"
       inkscape:connector-curvature="0"
       sodipodi:nodetypes="cssssc" />
    <path
       style="fill:none;stroke:#000000;stroke-width:0.57918966px;stroke-linecap:butt;stroke-linejoin:miter;stroke-opacity:1;display:inline"
       d="m 114.31463,897.63002 c 0,0 -16.87161,3.87699 -19.338789,4.93435 -2.467178,1.05737 -7.401535,5.63927 -12.335894,6.69664 -4.934356,1.05735 -10.780935,2.22667 -11.133392,4.69385 -0.35245,2.46718 2.114722,2.46718 2.114722,2.46718 0,0 5.141678,-0.81686 8.313756,-1.52178 3.172093,-0.7049 7.589422,-1.24056 7.589422,-1.24056"
       id="path5123"
       inkscape:connector-curvature="0"
       sodipodi:nodetypes="cssscsc" />
    <path
       style="fill:none;stroke:#000000;stroke-width:0.57918966px;stroke-linecap:butt;stroke-linejoin:miter;stroke-opacity:1;display:inline"
       d="m 87.901855,924.19262 c 0,0 -8.355234,4.7975 -10.469955,6.20732 -2.114722,1.40982 -4.934357,-3.52454 -1.762271,-6.34417 3.172085,-2.81964 7.401535,-7.40153 10.926079,-8.81134 3.524536,-1.40982 5.970418,-4.29563 5.970418,-4.29563"
       id="path5125"
       inkscape:connector-curvature="0"
       sodipodi:nodetypes="csssc" />
    <path
       style="fill:none;stroke:#000000;stroke-width:0.51889652px;stroke-linecap:butt;stroke-linejoin:miter;stroke-opacity:1;display:inline"
       d="m 224.40215,883.58099 c 0,0 20.07571,-10.19228 30.88572,-13.74415 10.81,-3.55185 30.57686,-5.86828 31.65786,-0.92656 1.081,4.94171 11.891,12.50871 -0.77214,11.42771 -12.66315,-1.081 -19.30358,-3.55185 -25.48073,-2.93414 -6.17714,0.6177 -36.29071,6.17714 -36.29071,6.17714 z"
       id="path5394"
       inkscape:connector-curvature="0" />
    <path
       style="fill:none;stroke:#000000;stroke-width:0.51889652px;stroke-linecap:butt;stroke-linejoin:miter;stroke-opacity:1;display:inline"
       d="m 170.29874,865.79865 c -3.89593,-0.005 -7.00513,0.99736 -7.81588,4.03767 -0.81284,3.04818 0.32582,5.53742 2.62692,7.31319 l 1.42696,-0.22701 c 2.83914,-0.4368 20.96833,-0.65621 25.11784,-0.43782 3.25329,0.17123 8.78228,2.22177 13.23186,4.78358 8.04794,0.63582 15.64526,1.40893 19.52348,2.01072 0,0 -30.74178,-12.66747 -38.4632,-14.67504 -4.3433,-1.12926 -10.63893,-2.79986 -15.64798,-2.80529 z"
       id="path5396"
       inkscape:connector-curvature="0" />
    <path
       style="fill:none;stroke:#000000;stroke-width:0.55232704;stroke-linecap:butt;stroke-linejoin:miter;stroke-miterlimit:4;stroke-opacity:1;stroke-dasharray:none;display:inline"
       d="m 249.80342,833.49735 c -1.9592,0.017 -4.04866,-0.18098 -5.67543,0.6324 -0.56125,0.28062 0.11019,2.43068 -0.95671,1.89722 -6.74661,-3.3733 -18.07992,-5.69204 -24.08004,0.30809 -2.63149,2.63149 2.52962,4.43239 2.52962,5.99974 0,0.49013 -6.44941,1.6465 -5.05924,4.42684 0.53318,1.06638 2.9612,2.79218 2.22152,3.16203 -6.65328,3.32663 1.26481,7.52623 1.26481,8.20505 0,3.29329 -1.944,7.26455 3.47012,7.26455 0,0 13.03487,3.16203 17.1398,3.16203 4.10493,0 9.78146,0.9464 12.30758,-0.63241 1.10709,-0.69194 2.2643,-1.55537 3.22689,-2.31882 0.46594,0.16125 1.01707,0.24323 1.70262,0.24323 6.37631,0 18.27538,0.87752 25.23135,-1.1513 6.95596,-2.02883 30.42473,-8.70602 35.64171,-13.05348 5.21697,-4.34749 10.42674,-15.06849 12.74539,-17.9668 2.31865,-2.89832 4.20388,-9.65933 1.16752,-11.5941 -1.17759,-0.75035 -1.07555,-1.0378 -1.49555,-1.65514 m -27.16525,2.95043 c -4.09388,0.54344 -14.8605,2.01217 -18.00746,3.34235 -5.90246,2.49489 -16.44618,13.95552 -21.04774,18.06408 l 0,-0.22701 -0.0811,0.24323 0.0324,0.0324 c -0.0186,0.0166 -0.0467,0.0324 -0.0649,0.0486 l 0.0324,-0.0811"
       id="path4521-5"
       inkscape:connector-curvature="0"
       sodipodi:nodetypes="cssssssscsscsssssccscccccc" />
    <path
       style="fill:none;stroke:#000000;stroke-width:0.55232704;stroke-linecap:butt;stroke-linejoin:miter;stroke-miterlimit:4;stroke-opacity:1;stroke-dasharray:none;display:inline"
       d="m 188.75096,722.82409 c 0,0 2.41708,0.54579 5.69182,-0.38985 3.27475,-0.93564 7.3292,-2.72896 10.37003,-2.96286 3.04084,-0.23392 4.67115,1.12281 6.93935,0.62375 1.72846,-0.38029 2.02722,-2.3391 4.60023,-2.65098 2.57302,-0.31188 5.06806,0.93564 7.40717,1.32549 2.3391,0.38985 8.81062,0 8.81062,0"
       id="path4249-8"
       inkscape:connector-curvature="0"
       sodipodi:nodetypes="csssssc" />
    <path
       style="fill:none;stroke:#000000;stroke-width:0.55232704;stroke-linecap:butt;stroke-linejoin:miter;stroke-miterlimit:4;stroke-opacity:1;stroke-dasharray:none;display:inline"
       d="m 232.49221,718.84762 -2.02722,0 c 0,0 -9.43439,7.5631 -17.30937,9.82424 -4.11568,1.18172 -12.47523,1.01361 -18.24502,-1.40347 -2.41745,-1.01271 -6.15964,-4.28836 -6.15964,-4.28836"
       id="path4251-6"
       inkscape:connector-curvature="0"
       sodipodi:nodetypes="ccssc" />
    <g
       style="display:inline"
       id="g6167"
       transform="matrix(0.33299728,-0.51438216,0.51438216,0.33299728,29.717095,659.7471)">
      <path
         transform="translate(-9.4522247,-0.62138367)"
         d="m 185.55113,127.46513 c 0,3.46511 -7.52952,6.27414 -16.81766,6.27414 -9.28813,0 -16.81765,-2.80903 -16.81765,-6.27414 0,-3.46511 7.52952,-6.27413 16.81765,-6.27413 9.28814,0 16.81766,2.80902 16.81766,6.27413 z"
         sodipodi:ry="6.274138"
         sodipodi:rx="16.817659"
         sodipodi:cy="127.46513"
         sodipodi:cx="168.73347"
         id="path6164"
         style="color:#000000;fill:#ffffff;stroke:#000000;stroke-width:1.25;stroke-linecap:round;stroke-linejoin:miter;stroke-miterlimit:4;stroke-opacity:1;stroke-dasharray:none;stroke-dashoffset:0;marker:none;visibility:visible;display:inline;overflow:visible;enable-background:accumulate"
         sodipodi:type="arc" />
      <path
         id="path6123"
         d="m 146.8125,113.71875 c -2.21732,0 -4.29313,0.63802 -6.09375,1.71875 5.09478,0.85283 9.03125,5.83365 9.03125,11.875 0,5.54952 -3.32615,10.2089 -7.8125,11.59375 1.4928,0.67529 3.14918,1.0625 4.875,1.0625 6.84317,0 12.375,-5.87588 12.375,-13.125 0,-7.24912 -5.53183,-13.125 -12.375,-13.125 z m 24.9375,0 c -6.84317,0 -12.375,5.87588 -12.375,13.125 0,7.24912 5.53183,13.125 12.375,13.125 1.72582,0 3.3822,-0.38721 4.875,-1.0625 -4.48635,-1.38485 -7.8125,-6.04423 -7.8125,-11.59375 0,-6.04135 3.93647,-11.02217 9.03125,-11.875 -1.80062,-1.08073 -3.87643,-1.71875 -6.09375,-1.71875 z"
         style="color:#000000;fill:#ffffff;fill-opacity:1;fill-rule:nonzero;stroke:#000000;stroke-width:1.25;marker:none;visibility:visible;display:inline;overflow:visible;enable-background:accumulate"
         inkscape:connector-curvature="0" />
    </g>
    <path
       style="color:#000000;fill:#ffffff;fill-opacity:1;fill-rule:nonzero;stroke:#000000;stroke-width:0.69040883;stroke-linecap:round;stroke-linejoin:miter;stroke-miterlimit:4;stroke-opacity:1;stroke-dasharray:none;stroke-dashoffset:0;marker:none;visibility:visible;display:inline;overflow:visible;enable-background:accumulate"
       d="m 243.9292,591.5697 c -2.25377,-2.18794 -5.84194,-2.13476 -8.02989,0.11902 -2.18794,2.25377 -2.14678,5.85433 0.107,8.04227 0.35428,0.34394 0.75002,0.62833 1.16014,0.86165 -0.67003,0.37998 -1.29472,0.86287 -1.85835,1.44346 -3.1905,3.28651 -3.12489,8.53721 0.16162,11.72772 3.28651,3.19052 8.54924,3.11251 11.73975,-0.174 0.56362,-0.58059 1.0154,-1.23134 1.37536,-1.91234 0.24615,0.4056 0.53936,0.78821 0.89565,1.1341 2.25378,2.18795 5.86636,2.1344 8.0543,-0.11937 2.18794,-2.25378 2.12237,-5.85397 -0.1314,-8.04191 -2.25377,-2.18794 -5.84195,-2.13476 -8.02989,0.11901 -0.10058,0.1036 -0.19707,0.2126 -0.28818,0.32163 -0.41059,-1.18666 -1.09939,-2.29412 -2.06187,-3.22848 -0.95856,-0.93056 -2.0829,-1.57728 -3.27579,-1.95326 0.10613,-0.0942 0.21252,-0.19413 0.31295,-0.29759 2.18794,-2.25377 2.12238,-5.85396 -0.1314,-8.04191 z"
       id="path6171"
       inkscape:connector-curvature="0" />
    <path
       style="fill:none;stroke:#000000;stroke-width:0.55232704px;stroke-linecap:butt;stroke-linejoin:miter;stroke-opacity:1"
       d="m 144.36161,611.82225 c 0,0 -3.33741,-1.86428 -17.54417,5.3982 -13.87992,7.0954 -26.45938,27.10558 -26.45938,40.6011 0,12.49148 3.87152,19.37496 4.97135,26.53718 1.09984,7.16222 -0.572,14.60317 -0.572,14.60317 0,0 5.84567,-6.75801 4.11509,-14.84459 -1.02249,-4.77785 -1.51722,-9.31597 -1.51722,-9.31597 0,0 3.84076,14.88274 5.96663,18.44388 2.41692,4.04865 10.23204,8.78026 10.23204,8.78026 0,0 -6.46557,-9.47959 -7.98278,-15.52803 -1.31341,-5.23599 -1.46812,-11.827 -1.46812,-11.827 0,0 2.84869,9.43283 4.61708,14.07625 1.96705,5.16511 8.54716,14.84508 8.54716,14.84508 0,0 -4.04866,-14.39522 -4.94836,-21.14298 -0.8997,-6.74776 -5.39821,-26.09134 0,-38.68716 5.3982,-12.59581 14.18519,-20.71157 14.18519,-20.71157"
       id="path6295"
       inkscape:connector-curvature="0"
       sodipodi:nodetypes="cssscscscscscssc" />
    <path
       style="fill:none;stroke:#000000;stroke-width:2.7616353;stroke-linecap:round;stroke-linejoin:miter;stroke-miterlimit:4;stroke-opacity:1;stroke-dasharray:none;display:inline"
       d="m 239.53653,588.87492 c -3.15613,0.003 -5.60381,2.87579 -6.40354,5.45423 -2.81255,-0.95497 -5.38151,1.04379 -8.10925,-0.2281 -7.27051,-0.77775 -14.87191,-3.55629 -22.06162,-1.22176 -2.23834,0.57884 -4.20975,2.12272 -6.12737,3.10684 -9.47965,-2.26417 -20.07003,-1.16122 -28.09964,4.59122 -5.22517,3.31162 -11.55526,4.59042 -17.0355,7.55255 -1.08863,0.36077 -3.47077,2.30111 -2.65841,-0.0789 0.76199,-2.29134 2.36953,-4.92728 -1.05576,-2.42667 -2.15367,0.92435 -3.62144,2.89678 -4.50203,4.89488 -7.16256,0.23583 -13.73329,3.92319 -19.86651,7.24929 -11.66479,7.84754 -20.1773,20.25876 -23.646504,33.81277 -2.424396,10.95583 1.588904,21.8412 4.159714,32.3284 1.12111,6.25074 -6.8e-4,12.5324 -1.07013,18.69282 3.7416,-3.79345 6.70324,-8.60547 7.18025,-13.99804 0.67266,2.81328 2.3562,5.30037 3.57286,7.76709 4.17871,18.38128 18.63479,31.99148 26.2508,48.84144 2.0135,3.92185 1.36284,8.40633 -0.60211,12.15618 -2.24285,5.68603 -7.00094,11.94078 -13.84269,10.87393 -3.73852,-0.11406 -7.38552,-0.64834 -11.06381,-1.31177 5.3834,6.48522 14.30853,10.65083 22.66267,7.66354 2.38707,-0.54193 5.56144,-1.64382 7.42189,-2.01945 -6.48705,6.8025 -17.3149,5.65373 -25.04457,1.70876 -4.02222,-1.87629 -2.41957,0.97374 -0.31069,2.57178 8.3463,6.2774 17.82272,10.54898 27.40059,7.05513 -2.17515,3.08087 -1.30487,2.82367 -2.49409,6.26975 -4.26652,9.62656 -7.94205,19.6038 -9.286,30.06731 -0.017,7.96901 0.21604,15.93747 0.34521,23.9054 -5.88181,6.18563 -12.16793,12.18476 -15.74234,20.06043 -3.49873,6.92827 -7.64063,14.09451 -7.54409,22.04986 -0.45899,3.7912 -1.30593,7.57327 -2.06884,11.27557 -6.72855,2.03039 -14.398726,2.22661 -19.987332,6.92134 -4.834458,4.22922 -11.355093,3.84366 -16.880496,6.38629 -2.980718,0.79597 -3.761474,5.59884 -0.517805,6.48984 3.648948,0.40391 7.366373,-1.11947 10.994758,-1.62246 -3.517192,2.84473 -7.300623,5.66968 -9.924626,9.33778 -1.594397,2.78381 0.969805,8.13499 4.470397,6.26546 1.922875,-1.21166 6.167551,-4.06132 2.448004,-0.62191 -2.865995,2.72053 -6.653846,6.32093 -5.054295,10.68462 0.756245,2.62227 3.573031,6.53146 6.645181,4.85012 0.962793,-1.0897 1.737485,-1.83883 2.778895,-0.43151 3.534401,2.21949 6.386666,-2.34025 8.923542,-4.03889 8.078887,-7.10286 16.971897,-13.1268 24.485097,-20.8872 2.33019,-3.30977 1.72955,2.68481 2.49262,4.19657 0.83495,3.3309 0.92169,6.77316 1.08739,10.09722 2.17593,3.36676 6.65813,4.93023 10.546,4.74656 3.45755,-1.35667 2.57768,-6.07736 2.46821,-9.04435 -0.53111,-4.52233 -1.86951,-9.19765 -2.01944,-13.53201 5.80325,12.68641 17.34397,21.72393 29.35963,28.22046 12.01911,5.64059 25.39576,7.84853 38.36904,10.48401 17.37967,2.89028 35.65078,6.00765 52.88212,0.60198 14.24297,-4.23511 27.62628,-11.05991 40.755,-17.78296 9.13472,-5.61589 18.65969,-12.28627 22.95608,-22.4728 1.88981,-5.47973 0.50138,-11.59689 2.65788,-17.03086 0.49345,-3.17167 4.65716,-2.42898 6.99059,-3.54333 11.70457,-2.99351 24.12454,-3.78717 35.84947,-0.44876 12.84248,2.50534 26.94058,6.55583 39.54317,1.10466 10.08494,-4.9914 16.23571,-14.98098 22.73355,-23.82574 5.77606,-7.9127 10.17949,-16.85778 16.53345,-24.33027 6.1822,-4.84498 14.44939,-5.18163 22.00677,-5.35068 -8.96273,-8.28471 -19.11285,-16.6924 -31.49989,-18.67555 -15.93583,-1.42549 -33.13511,-1.65175 -47.27575,6.83505 -5.56977,3.21317 -10.29525,7.66906 -15.29255,11.70242 9.62907,-14.46873 16.51559,-31.41922 17.00131,-48.94998 0.1559,-4.77365 -0.84193,-9.49121 -3.33122,-13.53201 -1.94892,-4.25728 -0.84464,-9.07121 -1.51935,-13.42749 -0.98049,-1.81297 -2.34783,3.09647 -2.57132,4.64204 -2.21024,7.70504 -3.56717,16.36939 -9.84377,21.93972 -11.21337,11.78828 -23.64396,23.02981 -34.13527,35.1053 0.87389,-2.97581 0.27994,-6.55055 -2.57177,-8.16408 -1.80872,-8.61088 -4.378,-17.3317 -10.33887,-24.06074 -11.44933,-14.19655 -22.53471,-29.54595 -37.52372,-39.88837 4.00176,-1.67004 7.21573,-4.78454 10.20079,-7.87066 -2.9142,0.6654 -4.17055,1.1654 -0.93205,-0.0345 2.63928,-0.92133 4.81872,-2.73 7.04217,-4.38409 -0.88618,-0.11281 -6.08664,0.99983 -4.22876,0.10356 2.62866,-1.37615 4.41706,-3.77963 6.02382,-6.19642 -6.85949,1.88974 -15.1053,3.94409 -21.31637,-0.72493 -3.19095,-6.35414 -0.0657,-13.65391 0.26695,-20.33793 1.24446,-7.37177 0.57553,-14.77786 -0.069,-22.15398 -1.46947,-22.90988 -0.59293,-46.83061 -9.53576,-68.35321 -2.79844,-5.00772 -6.05674,-9.89333 -10.87395,-13.11777 -2.94899,-2.09028 -0.44293,-1.39819 1.29452,-0.70767 6.40417,3.33024 8.29751,11.14929 11.47719,17.08891 7.56249,16.12227 15.45475,32.04306 22.09394,48.60348 1.73928,4.37775 2.26366,1.78807 2.08849,-1.41534 -2.55426,-15.07715 -8.1047,-29.5294 -12.80709,-44.03081 5.58483,2.94683 6.98078,9.5421 10.13175,14.49858 0.76619,-8.33635 -0.58763,-17.87139 -7.28381,-23.57746 -3.10899,-3.16764 -6.51174,-6.05326 -9.97641,-8.87175 8.33826,-3.41115 17.64462,-2.21836 25.97663,0.60411 -2.62293,-7.46131 -11.05351,-10.0957 -18.27708,-10.03372 -1.81201,-0.0331 -4.28397,0.11125 -1.22697,-0.87474 8.13319,-3.61815 17.24377,-0.63279 25.74792,-0.1899 2.22477,0.42841 9.82452,1.16727 4.79621,-1.41098 -21.14313,-9.19547 -45.37465,-12.60655 -68.05058,-7.44348 -0.76575,-0.56539 -0.56855,-3.16132 -1.84685,-4.19423 -1.337,-1.75485 -3.5879,-2.75872 -5.76491,-2.58903 z m 51.12477,160.77894 c -1.96445,0.5611 -2.20963,0.46792 0,0 z m -10.51148,59.97926 c 5.83247,5.49735 13.47663,9.18288 20.39468,13.15229 -5.98847,0.99058 -12.67526,1.42462 -18.00558,4.3348 -4.9586,2.34997 -4.04446,-1.8389 -3.68223,-5.41326 0.22969,-4.23173 0.45964,-8.46349 0.68903,-12.6952 l 0.38501,0.39602 z m -113.9347,36.55715 c 2.17155,6.13916 4.12562,12.41081 6.2482,18.58925 -4.22153,-0.51302 -10.3624,0.29094 -11.18462,5.38519 -0.23208,0.88169 -0.7098,4.40917 0.24672,5.14507 1.86414,1.43422 -0.34626,1.20774 -1.77158,1.42525 -2.03286,0.49276 -6.92138,1.97141 -10.21209,4.06198 2.85357,-6.3891 6.73465,-12.5517 8.38846,-19.34871 0.37629,-3.6408 4.99246,-4.65068 5.79943,-8.18135 1.00625,-2.44808 1.63781,-5.03489 2.31288,-7.59449 z m 152.35595,7.73258 c -5.36902,10.90185 -8.91673,23.21648 -6.62792,35.41797 0.20654,2.59488 1.34046,5.18638 1.74328,7.61175 -2.47468,5.11985 -2.97567,11.32603 -6.45532,15.8794 -7.41263,4.76484 -15.48963,9.27823 -24.44047,9.87285 1.06714,-3.9154 1.92995,-7.83337 2.93423,-11.70243 -0.24602,-10.67257 -5.93081,-20.31696 -8.14682,-30.58511 4.79544,0.30204 10.05887,2.25428 14.70571,0.31068 2.72924,-2.35619 -0.49117,-5.7592 -1.90467,-7.85711 -2.23287,-2.06584 -1.92977,-6.17916 -5.29284,-7.00393 -2.61624,-0.69194 4.00018,-1.32673 4.82249,-2.02046 9.88935,-3.23042 20.34801,-5.64819 29.23192,-11.09731 -0.18986,0.39123 -0.37972,0.78247 -0.56959,1.1737 z m -187.44598,51.31463 c -0.44957,2.00645 -0.015,5.46435 -0.0172,6.61066 -1.38724,-1.36272 -2.5518,-2.93853 -3.08958,-4.85012 0.76546,-0.2654 3.11754,-2.67297 3.10684,-1.76054 z"
       id="path5034-6"
       inkscape:connector-curvature="0"
       sodipodi:nodetypes="ccccccccccccccccccccccccccccccccccccccccccccccccccccccccccccccccccccccccccccccccccccccccccccccccccccccccccccccscccccccccccccccccccccccc" />
    <g
       transform="matrix(0.55232701,0,0,0.55232701,59.339838,546.55287)"
       style="display:inline"
       id="g3173">
      <path
         inkscape:connector-curvature="0"
         id="path6647"
         d="m 39.580273,690.34749 12.163693,-6.17838 -8.688352,9.8468 z"
         style="fill:#000000;stroke:none;display:inline" />
      <path
         inkscape:connector-curvature="0"
         id="path6670"
         d="m 53.908593,665.22101 -5.197175,2.42104 1.678591,-2.35648 z"
         style="fill:#000000;stroke:none" />
      <path
         inkscape:connector-curvature="0"
         id="path6674"
         d="m 107.81716,673.87821 2.71287,-2.40283 0.23253,3.25544 z"
         style="fill:#000000;stroke:none" />
      <path
         inkscape:connector-curvature="0"
         id="path6676"
         d="m 129.75265,664.49943 1.4727,6.82093 3.64299,-0.46506 -2.09278,-6.27836 z"
         style="fill:#000000;stroke:none" />
      <path
         inkscape:connector-curvature="0"
         id="path6678"
         d="m 129.4426,646.28446 3.48798,-2.55785 -0.85262,4.49561 z"
         style="fill:#000000;stroke:none" />
      <path
         inkscape:connector-curvature="0"
         id="path6682"
         d="m 41.761455,666.23987 2.053842,4.10769 10.269211,-5.47691 z"
         style="fill:#000000;stroke:none" />
      <path
         inkscape:connector-curvature="0"
         id="path6684"
         d="m 186.12863,599.53536 5.17024,-0.7386 -3.01598,-2.95443 -1.84651,3.50838 0,0 0,0 0,0"
         style="fill:#000000;stroke:none" />
      <path
         inkscape:connector-curvature="0"
         id="path6686"
         d="m 406.14166,575.88015 -9.37634,1.92518 0.78433,0.78433 8.66331,0.71303 z"
         style="fill:#000000;stroke:none" />
      <path
         inkscape:connector-curvature="0"
         id="path6688"
         d="m 560.25166,534.45512 -7.57097,10.82825 1.93676,-0.35214 8.71542,-7.659 z"
         style="fill:#000000;stroke:none" />
      <path
         inkscape:connector-curvature="0"
         id="path6690"
         d="m 472.2722,550.57985 4.84495,-5.83596 -1.87191,4.84495 z"
         style="fill:#000000;stroke:none" />
      <path
         inkscape:connector-curvature="0"
         id="path6692"
         d="m 394.86316,507.08544 -0.77078,11.4517 10.46068,-8.03821 -9.6899,-2.75281 -0.11011,0 0,0 0,0 0,0"
         style="fill:#000000;stroke:none" />
      <path
         inkscape:connector-curvature="0"
         id="path6694"
         d="m 152.00381,406.8812 7.49315,-1.78408 -3.92498,6.77951 z"
         style="fill:#000000;stroke:none" />
      <path
         inkscape:connector-curvature="0"
         id="path6696"
         d="m 90.3618,258.18441 -0.368073,-7.91356 -2.208435,-12.20774 0.858836,0.79749 5.459742,18.28094 z"
         style="fill:#000000;stroke:none" />
      <path
         inkscape:connector-curvature="0"
         id="path6698"
         d="m 403.87501,105.07128 -6.30097,3.64434 6.67562,-0.30653 z"
         style="fill:#000000;stroke:none" />
      <path
         inkscape:connector-curvature="0"
         id="path6702"
         d="m 427.22205,357.10795 c 0,0 -4.76013,2.47161 -10.52722,2.10544 -5.76708,-0.36616 -17.8505,-2.38006 -17.8505,-2.38006 l 4.30243,2.19698 8.23869,1.73928 8.87948,0.64079 7.96408,-0.45771 z"
         style="fill:#000000;stroke:none" />
      <path
         inkscape:connector-curvature="0"
         id="path6704"
         d="m 419.53261,365.2551 c 0,0 -7.14021,2.01391 -8.6964,2.01391 -1.5562,0 -10.80185,-0.45771 -10.80185,-0.45771 l -9.52026,-1.37311 2.19698,1.55619 12.44958,2.74623 6.22479,1.0985 4.48551,-0.36617 2.65469,-0.82387 z"
         style="fill:#000000;stroke:none" />
      <path
         inkscape:connector-curvature="0"
         id="path6887"
         d="m 423.49507,364.91647 -4.19302,0.62895 -2.09651,1.46756 0.41931,2.51581 2.51581,0.4193 z"
         style="fill:#000000;stroke:none" />
    </g>
    <path
       inkscape:connector-curvature="0"
       d="m 446.49245,738.90298 c 0.066,0.01 0.1306,0.0196 0,0 z"
       style="fill:none;stroke:#000000;stroke-width:0.13901989px"
       id="path5034-7-0" />
    <path
       sodipodi:nodetypes="ccsscccc"
       inkscape:connector-curvature="0"
       id="rect4013"
       d="m 239.48038,819.24173 -3.05065,14.1847 c 2.08332,0.42505 6.02224,3.35194 7.28254,2.7218 0.36865,-0.18433 0.36009,-1.51808 0.80006,-1.95804 0.36863,-0.36863 1.85253,-0.82999 2.67388,-0.779 l 2.48439,-12.80094 c -3.39827,1.70919 -5.70568,2.65283 -5.70568,2.65283 0,0 -1.84698,-1.50949 -4.48454,-4.02135 z"
       style="color:#000000;fill:#ffffff;stroke:#000000;stroke-width:0.56490958;stroke-linecap:round;stroke-linejoin:miter;stroke-miterlimit:4;stroke-opacity:1;stroke-dasharray:none;stroke-dashoffset:0;marker:none;visibility:visible;display:inline;overflow:visible;enable-background:accumulate" />
    <g
       transform="matrix(0.19224703,0.02881894,-0.02881894,0.19224703,203.88227,688.79866)"
       style="enable-background:new"
       id="g3109">
      <path
         inkscape:connector-curvature="0"
         d="m 290.95,680.34 c 0,0 236.67,-140 202.39,-274.28 C 459.05,271.77 313.34,303.2 290.95,374.63 268.57,303.2 122.86,271.77 88.57,406.06 54.286,540.34 290.95,680.34 290.95,680.34 z"
         transform="matrix(0.83104,0,0,0.83104,63.201,91.916)"
         style="opacity:0.8964;fill:none;stroke:#000000;filter:url(#filter5812)"
         sodipodi:nodetypes="cscsc"
         id="path5679" />
      <path
         id="path5034-7"
         style="fill:none;stroke:#000000;stroke-width:1px"
         d="m 344.0406,360.625 c 0.48,0 0.95,0 0,0 z"
         inkscape:connector-curvature="0" />
      <path
         id="path5277"
         sodipodi:nodetypes="cscsc"
         style="fill:#d40000;stroke:#800000;stroke-width:4.84631014;stroke-miterlimit:4;stroke-dasharray:none"
         d="m 304.9906,662.055 c 0,0 236.67,-140 202.39,-274.28 -34.29,-134.29 -180,-102.86 -202.39,-31.43 -22.38,-71.43 -168.09,-102.86 -202.38,31.43 -34.284,134.28 202.38,274.28 202.38,274.28 z"
         inkscape:connector-curvature="0" />
      <path
         id="path5457"
         style="fill:#ffaaaa;stroke:none;filter:url(#filter5655)"
         transform="matrix(0.40614,0,0,0.40614,282.5306,196.285)"
         d="m 388.39,332.39 c -16.46,0 -31.84,4.47 -44.99,12.23 53.5,3.75 95.76,47.53 95.76,100.96 0,18.22 -4.92,35.33 -13.52,50.11 29.62,-13.73 50.14,-43.31 50.14,-77.56 0,-47.32 -39.15,-85.74 -87.39,-85.74 z"
         inkscape:connector-curvature="0" />
    </g>
    <text
       xml:space="preserve"
       style="font-size:90.37815094px;font-style:normal;font-variant:normal;font-weight:bold;font-stretch:normal;text-align:center;line-height:100%;letter-spacing:0px;word-spacing:0px;writing-mode:lr-tb;text-anchor:middle;fill:#d40000;fill-opacity:1;stroke:none;font-family:Harrington;-inkscape-font-specification:Harrington Bold"
       x="258.50641"
       y="446.7713"
       id="text4154"
       sodipodi:linespacing="100%"><tspan
         sodipodi:role="line"
         id="tspan4156"
         x="258.50641"
         y="446.7713">Happy</tspan><tspan
         sodipodi:role="line"
         x="258.50641"
         y="537.14948"
         id="tspan4158">Valentine's</tspan></text>
    <text
       xml:space="preserve"
       style="font-size:100px;font-style:normal;font-variant:normal;font-weight:bold;font-stretch:normal;text-align:start;line-height:125%;letter-spacing:0px;word-spacing:0px;writing-mode:lr-tb;text-anchor:start;fill:#d40000;fill-opacity:1;stroke:none;font-family:Harrington;-inkscape-font-specification:Harrington Bold"
       x="473.23737"
       y="538.2392"
       id="text4160"
       sodipodi:linespacing="125%"><tspan
         sodipodi:role="line"
         id="tspan4162"
         x="473.23737"
         y="538.2392">!</tspan></text>
  </g>
</svg>
